{"title":"5.Days.Of.August.2011.480p.BRRip.XviD.Ac3.Feel-Free","uid":6472519,"size":1528431531,"categoryP":"video","categoryS":"movies","magnet":"?xt=urn:btih:104a7cca1caf3caaee924ea39eb1f72aa88341c3&amp;dn=5.Days.Of.August.2011.480p.BRRip.XviD.Ac3.Feel-Free&amp;tr=udp%3A%2F%2Ftracker.openbittorrent.com%3A80&amp;tr=udp%3A%2F%2Fopen.demonii.com%3A1337&amp;tr=udp%3A%2F%2Ftracker.coppersurfer.tk%3A6969&amp;tr=udp%3A%2F%2Fexodus.desync.com%3A6969","seeders":1,"leechers":0,"uploader":"hiest","files":-1,"time":1308194059,"description":" Full Credits To Feel Free :)\n\n ######## ######## ######## ##          ######## ########  ######## ######## \n ##       ##       ##       ##          ##       ##     ## ##       ##       \n ##       ##       ##       ##          ##       ##     ## ##       ##       \n ######   ######   ######   ##          ######   ########  ######   ######   \n ##       ##       ##       ##          ##       ##   ##   ##       ##       \n ##       ##       ##       ##          ##       ##    ##  ##       ##       \n ##       ######## ######## ########    ##       ##     ## ######## ######## \n\n\n Genre:Action | Drama | War\n Language:English\n &lt;a href=&quot; http://www.imdb.com/title/tt1486193&quot; rel=&quot;nofollow&quot; target=&quot;_NEW&quot;&gt; http://www.imdb.com/title/tt1486193&lt;/a&gt;\n Source:720p.BluRay.x264-7SinS Thanks!\n Subtitles:Romana\n\n Format : AVI\n Format/Info : Audio Video Interleave\n File size : 1.42 GiB\n Duration : 1h 53mn\n Overall bit rate : 1 802 Kbps\n\n Video\n ID : 0\n Format : MPEG-4 Visual\n Format profile : Advanced Simple@L5\n Format settings, BVOP : Yes\n Format settings, QPel : No\n Format settings, GMC : No warppoints\n Format settings, Matrix : Default (H.263)\n Codec ID : XVID\n Codec ID/Hint : XviD\n Duration : 1h 53mn\n Bit rate : 1 344 Kbps\n Width : 640 pixels\n Height : 264 pixels\n Display aspect ratio : 2.40:1\n Frame rate : 23.976 fps\n Color space : YUV\n Chroma subsampling : 4:2:0\n Bit depth : 8 bits\n Scan type : Progressive\n Bits/(Pixel*Frame) : 0.332\n Stream size : 1.06 GiB (75%)\n Writing library : XviD 1.2.1 (UTC 2008-12-04)\n\n Audio\n ID : 1\n Format : AC-3\n Format/Info : Audio Coding 3\n Mode extension : CM (complete main)\n Codec ID : 2000\n Duration : 1h 53mn\n Bit rate mode : Constant\n Bit rate : 448 Kbps\n Channel(s) : 6 channels\n Channel positions : Front: L C R, Side: L R, LFE\n Sampling rate : 48.0 KHz\n Bit depth : 16 bits\n Stream size : 362 MiB (25%)\n Alignment : Aligned on interleaves\n Interleave, duration : 42 ms (1.00 video frame)\n Interleave, preload duration : 512 ms\n\n\n Plot:\n A drama set centered around the war between Russia and Georgia, and focused \n on an American journalist, his cameraman, and a Georgian native who \n become caught in the crossfire.\n\n\n\n\n\n\n ==================================\n &lt;a href=&quot; http://thepiratebay.se/user/hiest&quot; rel=&quot;nofollow&quot; target=&quot;_NEW&quot;&gt; http://thepiratebay.se/user/hiest&lt;/a&gt;\n ==================================\n\n\n\n\n\n\n Screen Shots:\n\n &lt;a href=&quot; http://leetleech.org/images/55460613628995718882.png&quot; rel=&quot;nofollow&quot; target=&quot;_NEW&quot;&gt; http://leetleech.org/images/55460613628995718882.png&lt;/a&gt;\n\n &lt;a href=&quot; http://leetleech.org/images/47219249163161535192.png&quot; rel=&quot;nofollow&quot; target=&quot;_NEW&quot;&gt; http://leetleech.org/images/47219249163161535192.png&lt;/a&gt;\n\n &lt;a href=&quot; http://leetleech.org/images/74695326440670077387.png&quot; rel=&quot;nofollow&quot; target=&quot;_NEW&quot;&gt; http://leetleech.org/images/74695326440670077387.png&lt;/a&gt;\n\n\n Full Credits To Feel Free :)\n\n ######## ######## ######## ##          ######## ########  ######## ######## \n ##       ##       ##       ##          ##       ##     ## ##       ##       \n ##       ##       ##       ##          ##       ##     ## ##       ##       \n ######   ######   ######   ##          ######   ########  ######   ######   \n ##       ##       ##       ##          ##       ##   ##   ##       ##       \n ##       ##       ##       ##          ##       ##    ##  ##       ##       \n ##       ######## ######## ########    ##       ##     ## ######## ######## \n","torrent":{"xt":"urn:btih:104a7cca1caf3caaee924ea39eb1f72aa88341c3","amp;dn":"5.Days.Of.August.2011.480p.BRRip.XviD.Ac3.Feel-Free","amp;tr":["udp%3A%2F%2Ftracker.openbittorrent.com%3A80","udp%3A%2F%2Fopen.demonii.com%3A1337","udp%3A%2F%2Ftracker.coppersurfer.tk%3A6969","udp%3A%2F%2Fexodus.desync.com%3A6969"],"infoHash":"104a7cca1caf3caaee924ea39eb1f72aa88341c3","infoHashBuffer":{"type":"Buffer","data":[16,74,124,202,28,175,60,170,238,146,78,163,158,177,247,42,168,131,65,195]},"announce":[],"urlList":[]}}